<?xml version="1.0" encoding="UTF-8"?>
<svg id="Layer_2" data-name="Layer 2" xmlns="http://www.w3.org/2000/svg" xmlns:xlink="http://www.w3.org/1999/xlink" viewBox="0 0 36.08 63.39">
  <defs>
    <style>
      .cls-1 {
        fill: #f9dc5c;
      }

      .cls-2, .cls-3 {
        fill: none;
      }

      .cls-3 {
        clip-path: url(#clippath);
      }
    </style>
    <clipPath id="clippath">
      <rect class="cls-2" x="0" width="36.07" height="63.39"/>
    </clipPath>
  </defs>
  <g id="Layer_2-2" data-name="Layer 2">
    <g class="cls-3">
      <g id="Group_953" data-name="Group 953">
        <path id="Path_6837" data-name="Path 6837" class="cls-1" d="m6.84.64c1.24.6,2.64,2.67,3.52,3.69,1.77,2.04,3.65,3.97,5.64,5.79,3.73,3.45,7.42,6.96,10.97,10.57,2.47,2.5,5.15,4.8,7.45,7.37,1.84,2.05,2.25,4.03.72,6.37-3.84,5.88-9.55,10.75-14.7,15.57-2.7,2.53-5.44,4.97-8.07,7.58-1.97,1.96-3.69,4.1-6.2,5.39-2.15,1.11-5.64.02-5.6-2.68.03-1.93,1.91-4.01,2.9-5.67,2.69-4.36,5.91-8.36,9.6-11.92,1.67-1.65,3.2-3.37,4.97-4.98,1.34-1.21,4.05-2.79,4.61-4.44.73-2.15-1.7-4.33-3.04-5.85-2.04-2.3-3.93-4.79-6.14-6.92-4.14-3.81-8.08-7.83-11.81-12.05C.03,6.54-.5,4.95.52,2.75,1.14,1.43,2.16.18,3.53.02c.5-.05,1.01.03,1.47.23"/>
      </g>
    </g>
  </g>
</svg>