<?xml version="1.0" encoding="UTF-8"?>
<svg id="Layer_2" data-name="Layer 2" xmlns="http://www.w3.org/2000/svg" xmlns:xlink="http://www.w3.org/1999/xlink" viewBox="0 0 36.26 63.39">
  <defs>
    <style>
      .cls-1 {
        fill: #f9dc5c;
      }

      .cls-2, .cls-3 {
        fill: none;
      }

      .cls-3 {
        clip-path: url(#clippath);
      }
    </style>
    <clipPath id="clippath">
      <rect class="cls-2" width="36.26" height="63.39"/>
    </clipPath>
  </defs>
  <g id="Layer_2-2" data-name="Layer 2">
    <g id="Group_956" data-name="Group 956">
      <g class="cls-3">
        <g id="Group_953-2" data-name="Group 953-2">
          <path id="Path_6837-2" data-name="Path 6837-2" class="cls-1" d="m29.39.64c-1.25.6-2.65,2.67-3.53,3.69-1.78,2.04-3.67,3.97-5.67,5.79-3.75,3.45-7.46,6.96-11.03,10.57-2.48,2.5-5.18,4.8-7.49,7.37-1.85,2.05-2.26,4.04-.72,6.37,3.86,5.88,9.6,10.75,14.78,15.57,2.72,2.53,5.47,4.97,8.11,7.58,1.98,1.96,3.71,4.1,6.24,5.39,2.17,1.11,5.67.02,5.63-2.68-.03-1.93-1.92-4.01-2.92-5.67-2.71-4.36-5.95-8.37-9.65-11.92-1.68-1.65-3.22-3.37-4.99-4.98-1.35-1.22-4.07-2.79-4.64-4.45-.73-2.15,1.71-4.33,3.06-5.85,2.05-2.3,3.95-4.79,6.18-6.92,4.16-3.81,8.12-7.83,11.87-12.04,1.63-1.92,2.15-3.51,1.13-5.71-.62-1.32-1.64-2.58-3.03-2.74-.5-.05-1.01.03-1.47.23"/>
        </g>
      </g>
    </g>
  </g>
</svg>